<svg width="41" height="60" viewBox="0 0 41 60" fill="none" xmlns="http://www.w3.org/2000/svg">
<path d="M30.0117 20.0039C32.6644 20.0039 35.2084 18.9501 37.0842 17.0744C38.9599 15.1987 40.0137 12.6546 40.0137 10.002C40.0137 7.34927 38.9599 4.80523 37.0842 2.9295C35.2084 1.05377 32.6644 0 30.0117 0L10.0078 0C7.35669 0 4.81414 1.05316 2.93951 2.92779C1.06488 4.80242 0.0117215 7.34496 0.0117215 9.99609C0.0117215 12.6472 1.06488 15.1898 2.93951 17.0644C4.81414 18.939 7.35669 19.9922 10.0078 19.9922C7.35513 19.9922 4.8111 21.046 2.93537 22.9217C1.05964 24.7974 0.00586218 27.3415 0.00586218 29.9941C0.00586218 32.6468 1.05964 35.1909 2.93537 37.0666C4.8111 38.9423 7.35513 39.9961 10.0078 39.9961C8.02962 39.9949 6.0955 40.5804 4.45004 41.6785C2.80459 42.7765 1.5217 44.3379 0.763601 46.1651C0.00550697 47.9922 -0.193743 50.0032 0.191048 51.9436C0.575839 53.884 1.52739 55.6667 2.92537 57.0663C4.32335 58.466 6.10496 59.4196 8.04493 59.8067C9.98489 60.1937 11.9961 59.9968 13.8241 59.2409C15.6522 58.4849 17.215 57.2039 18.315 55.5597C19.415 53.9155 20.0028 51.9821 20.0039 50.0039V20.0039H30.0117ZM30.0117 20.0039C28.0347 20.0039 26.102 20.5902 24.4582 21.6886C22.8143 22.7869 21.5331 24.3481 20.7765 26.1747C20.02 28.0012 19.822 30.0111 20.2077 31.9501C20.5934 33.8892 21.5454 35.6703 22.9434 37.0683C24.3414 38.4663 26.1225 39.4183 28.0616 39.804C30.0006 40.1897 32.0105 39.9918 33.8371 39.2352C35.6636 38.4786 37.2248 37.1974 38.3232 35.5535C39.4216 33.9097 40.0078 31.977 40.0078 30C40.0075 27.349 38.9543 24.8066 37.0797 22.932C35.2051 21.0575 32.6628 20.0042 30.0117 20.0039Z" fill="#5E7DE9"/>
</svg>
