<svg width="32" height="32" viewBox="0 0 32 32" fill="none" xmlns="http://www.w3.org/2000/svg">
<rect width="32" height="32" rx="4" fill="#F0F7F9"/>
<path d="M14.2033 18.8233C14.2033 19.52 13.84 20.66 12.98 20.66C12.12 20.66 11.7567 19.52 11.7567 18.8233C11.7567 18.1267 12.12 16.9867 12.98 16.9867C13.84 16.9867 14.2033 18.1267 14.2033 18.8233ZM24 17.14C24 18.2033 23.8933 19.33 23.4167 20.3067C22.1533 22.86 18.68 22.8 16.1933 22.8C13.6667 22.8 9.98667 22.89 8.67333 20.3067C8.18667 19.34 8 18.2033 8 17.14C8 15.7433 8.46333 14.4233 9.38333 13.3533C9.21 12.8267 9.12667 12.2733 9.12667 11.7267C9.12667 11.01 9.29 10.65 9.61333 10C11.1233 10 12.09 10.3 13.24 11.2C14.2067 10.97 15.2 10.8667 16.1967 10.8667C17.0967 10.8667 18.0033 10.9633 18.8767 11.1733C20.01 10.2833 20.9767 10 22.47 10C22.7967 10.65 22.9567 11.01 22.9567 11.7267C22.9567 12.2733 22.87 12.8167 22.7 13.3333C23.6167 14.4133 24 15.7433 24 17.14ZM21.8567 18.8233C21.8567 17.36 20.9667 16.07 19.4067 16.07C18.7767 16.07 18.1733 16.1833 17.54 16.27C17.0433 16.3467 16.5467 16.3767 16.0367 16.3767C15.53 16.3767 15.0333 16.3467 14.5333 16.27C13.91 16.1833 13.3 16.07 12.6667 16.07C11.1067 16.07 10.2167 17.36 10.2167 18.8233C10.2167 21.75 12.8967 22.2 15.23 22.2H16.8367C19.18 22.2 21.8567 21.7533 21.8567 18.8233ZM19.1033 16.9867C18.2433 16.9867 17.88 18.1267 17.88 18.8233C17.88 19.52 18.2433 20.66 19.1033 20.66C19.9633 20.66 20.3267 19.52 20.3267 18.8233C20.3267 18.1267 19.9633 16.9867 19.1033 16.9867Z" fill="black"/>
</svg>
