<svg width="32" height="32" viewBox="0 0 32 32" fill="none" xmlns="http://www.w3.org/2000/svg">
<rect width="32" height="32" rx="4" fill="#F0F7F9"/>
<path d="M16.0018 11.8969C13.7316 11.8969 11.9005 13.7281 11.9005 15.9982C11.9005 18.2684 13.7316 20.0995 16.0018 20.0995C18.2719 20.0995 20.1031 18.2684 20.1031 15.9982C20.1031 13.7281 18.2719 11.8969 16.0018 11.8969ZM16.0018 18.6646C14.5347 18.6646 13.3354 17.4688 13.3354 15.9982C13.3354 14.5276 14.5312 13.3318 16.0018 13.3318C17.4724 13.3318 18.6682 14.5276 18.6682 15.9982C18.6682 17.4688 17.4688 18.6646 16.0018 18.6646ZM21.2274 11.7292C21.2274 12.261 20.7991 12.6858 20.2708 12.6858C19.739 12.6858 19.3142 12.2574 19.3142 11.7292C19.3142 11.2009 19.7426 10.7726 20.2708 10.7726C20.7991 10.7726 21.2274 11.2009 21.2274 11.7292ZM23.9438 12.7001C23.8831 11.4186 23.5904 10.2835 22.6516 9.34835C21.7165 8.41316 20.5814 8.12047 19.2999 8.05622C17.9793 7.98126 14.0207 7.98126 12.7001 8.05622C11.4222 8.1169 10.2871 8.40959 9.34835 9.34479C8.40959 10.28 8.12047 11.4151 8.05622 12.6965C7.98126 14.0172 7.98126 17.9757 8.05622 19.2964C8.1169 20.5778 8.40959 21.7129 9.34835 22.6481C10.2871 23.5833 11.4186 23.876 12.7001 23.9402C14.0207 24.0152 17.9793 24.0152 19.2999 23.9402C20.5814 23.8795 21.7165 23.5868 22.6516 22.6481C23.5868 21.7129 23.8795 20.5778 23.9438 19.2964C24.0187 17.9757 24.0187 14.0207 23.9438 12.7001ZM22.2376 20.7134C21.9592 21.4131 21.4202 21.952 20.717 22.234C19.664 22.6516 17.1654 22.5553 16.0018 22.5553C14.8381 22.5553 12.336 22.6481 11.2866 22.234C10.5869 21.9556 10.048 21.4166 9.76598 20.7134C9.34835 19.6605 9.44473 17.1619 9.44473 15.9982C9.44473 14.8346 9.35192 12.3324 9.76598 11.283C10.0444 10.5834 10.5834 10.0444 11.2866 9.76241C12.3395 9.34479 14.8381 9.44116 16.0018 9.44116C17.1654 9.44116 19.6676 9.34835 20.717 9.76241C21.4166 10.0408 21.9556 10.5798 22.2376 11.283C22.6552 12.336 22.5588 14.8346 22.5588 15.9982C22.5588 17.1619 22.6552 19.664 22.2376 20.7134Z" fill="black"/>
</svg>
