<svg width="45" height="60" viewBox="0 0 45 60" fill="none" xmlns="http://www.w3.org/2000/svg">
<path d="M32.2009 36.6675C33.3493 35.8823 34.943 35.2027 34.943 35.2027C34.943 35.2027 30.4079 36.023 25.8963 36.398C20.3768 36.855 14.4472 36.9487 11.4707 36.5503C4.42779 35.6128 15.3378 33.023 15.3378 33.023C15.3378 33.023 11.1074 32.7418 5.89262 35.2495C-0.259643 38.2261 21.1268 39.5854 32.2009 36.6675ZM22.1932 32.9058C19.9667 27.902 12.455 23.5075 22.1932 15.8201C34.3407 6.23429 28.1111 0 28.1111 0C30.6306 9.90221 19.2518 12.9022 15.1386 19.0544C12.3378 23.2614 16.5097 27.7731 22.1932 32.9058ZM35.6227 12.2577C35.6344 12.2577 15.0917 17.3904 24.9002 28.6871C27.7947 32.0152 24.1385 35.0152 24.1385 35.0152C24.1385 35.0152 31.486 31.2183 28.1111 26.4723C24.9588 22.0427 22.5447 19.8396 35.6227 12.2577ZM34.9079 43.9565C34.8438 44.0681 34.765 44.1706 34.6735 44.2611C49.7084 40.312 44.1773 30.3277 36.9938 32.8589C36.6058 33.0015 36.2706 33.2591 36.0328 33.5972C36.4523 33.4454 36.8834 33.3278 37.3219 33.2457C40.9547 32.4839 46.1694 38.1089 34.9079 43.9565ZM40.4343 51.2571C40.4343 51.2571 42.1335 52.6516 38.5711 53.7415C31.786 55.7922 10.3527 56.4133 4.39967 53.8235C2.25517 52.8977 6.27465 51.597 7.54025 51.3274C8.85274 51.0462 9.61444 51.0931 9.61444 51.0931C7.23557 49.4173 -5.77207 54.386 3.00516 55.804C26.9392 59.6945 46.6452 54.0579 40.4343 51.2571ZM14.2363 46.4056C5.01373 48.9837 19.8495 54.304 31.5915 49.2767C30.4463 48.8318 29.3408 48.2908 28.2869 47.6595C23.0486 48.6556 20.6229 48.7259 15.8651 48.1869C11.9394 47.7416 14.2363 46.4056 14.2363 46.4056ZM35.3063 57.7961C26.0838 59.5305 14.705 59.3312 7.96681 58.218C7.96681 58.2063 9.34961 59.3547 16.4511 59.8117C27.2556 60.5031 43.8491 59.425 44.2359 54.3157C44.2359 54.3157 43.4859 56.2493 35.3063 57.7961ZM30.197 41.3666C23.2596 42.7026 19.2401 42.6674 14.1659 42.1401C10.2402 41.7299 12.8066 39.8315 12.8066 39.8315C2.63485 43.2065 18.455 47.0267 32.6696 42.8666C31.7509 42.5422 30.9091 42.0316 30.197 41.3666Z" fill="#5E7DE9"/>
</svg>
