<svg width="32" height="32" viewBox="0 0 32 32" fill="none" xmlns="http://www.w3.org/2000/svg">
<rect width="32" height="32" rx="4" fill="#5E7DE9"/>
<path d="M22.8571 8H9.13929C8.51071 8 8 8.51786 8 9.15357V22.8464C8 23.4821 8.51071 24 9.13929 24H22.8571C23.4857 24 24 23.4821 24 22.8464V9.15357C24 8.51786 23.4857 8 22.8571 8ZM12.8357 21.7143H10.4643V14.0786H12.8393V21.7143H12.8357ZM11.65 13.0357C10.8893 13.0357 10.275 12.4179 10.275 11.6607C10.275 10.9036 10.8893 10.2857 11.65 10.2857C12.4071 10.2857 13.025 10.9036 13.025 11.6607C13.025 12.4214 12.4107 13.0357 11.65 13.0357ZM21.725 21.7143H19.3536V18C19.3536 17.1143 19.3357 15.975 18.1214 15.975C16.8857 15.975 16.6964 16.9393 16.6964 17.9357V21.7143H14.325V14.0786H16.6V15.1214H16.6321C16.95 14.5214 17.725 13.8893 18.8786 13.8893C21.2786 13.8893 21.725 15.4714 21.725 17.5286V21.7143Z" fill="white"/>
</svg>
