<svg width="143" height="19" viewBox="0 0 143 19" fill="none" xmlns="http://www.w3.org/2000/svg">
<path d="M10.224 0.719999C12.32 0.719999 13.816 1.248 14.712 2.304C15.368 3.104 15.696 4.104 15.696 5.304C15.696 5.736 15.656 6.192 15.576 6.672L14.64 12.024C14.32 13.832 13.536 15.28 12.288 16.368C11.04 17.456 9.424 18 7.44 18H0.456L3.504 0.719999H10.224ZM8.712 4.464H7.152L5.448 14.256H7.728C8.48 14.256 9.064 14.056 9.48 13.656C9.912 13.24 10.208 12.568 10.368 11.64L11.064 7.704C11.128 7.352 11.16 7.032 11.16 6.744C11.16 5.224 10.344 4.464 8.712 4.464ZM27.8387 14.304C27.8387 14.72 28.0467 14.928 28.4627 14.928C28.8947 14.928 29.2547 14.848 29.5427 14.688L29.4227 17.4C28.6547 18.024 27.7907 18.336 26.8307 18.336C25.0707 18.336 24.0947 17.696 23.9027 16.416C23.1027 17.696 21.9267 18.336 20.3747 18.336C17.7507 18.336 16.4387 17.208 16.4387 14.952C16.4387 14.568 16.4787 14.144 16.5587 13.68L17.0627 10.872C17.3187 9.432 17.9027 8.288 18.8147 7.44C19.7427 6.576 20.9427 6.144 22.4147 6.144C23.9027 6.144 24.9107 6.488 25.4387 7.176L25.5587 6.456H29.2067L27.8627 14.016C27.8467 14.112 27.8387 14.208 27.8387 14.304ZM20.7347 13.152C20.7027 13.296 20.6867 13.496 20.6867 13.752C20.6867 14.008 20.8067 14.264 21.0467 14.52C21.2867 14.76 21.6867 14.88 22.2467 14.88C22.8227 14.88 23.3187 14.656 23.7347 14.208L24.4547 10.176C24.2787 9.776 23.8627 9.576 23.2067 9.576C21.9747 9.576 21.2547 10.168 21.0467 11.352L20.7347 13.152ZM50.8922 14.928C51.2602 14.928 51.5882 14.848 51.8762 14.688L51.7562 17.4C51.0042 18.024 50.1482 18.336 49.1882 18.336C47.0122 18.336 45.9242 17.424 45.9242 15.6C45.9242 15.28 45.9562 14.936 46.0202 14.568L46.5242 11.616C46.5722 11.328 46.5962 11.04 46.5962 10.752C46.5962 9.984 46.1722 9.6 45.3242 9.6C44.4922 9.6 43.8362 9.928 43.3562 10.584L42.0602 18H37.9802L39.1082 11.616C39.1562 11.328 39.1802 11.04 39.1802 10.752C39.1802 9.984 38.7482 9.6 37.8842 9.6C37.1962 9.6 36.6042 9.864 36.1082 10.392L34.7642 18H30.6842L32.7242 6.456H36.5162L36.2522 7.896C37.2122 6.712 38.4282 6.12 39.9002 6.12C41.9802 6.12 43.1642 6.808 43.4522 8.184C44.4122 6.808 45.6922 6.12 47.2922 6.12C48.9082 6.12 49.9562 6.48 50.4362 7.2C50.7562 7.696 50.9162 8.24 50.9162 8.832C50.9162 9.424 50.8762 9.96 50.7962 10.44L50.1962 14.016C50.1802 14.112 50.1722 14.2 50.1722 14.28C50.1722 14.712 50.4122 14.928 50.8922 14.928ZM64.5418 14.304C64.5418 14.72 64.7498 14.928 65.1658 14.928C65.5978 14.928 65.9578 14.848 66.2458 14.688L66.1258 17.4C65.3578 18.024 64.4938 18.336 63.5338 18.336C61.7738 18.336 60.7978 17.696 60.6058 16.416C59.8058 17.696 58.6298 18.336 57.0778 18.336C54.4538 18.336 53.1418 17.208 53.1418 14.952C53.1418 14.568 53.1818 14.144 53.2618 13.68L53.7658 10.872C54.0218 9.432 54.6058 8.288 55.5178 7.44C56.4458 6.576 57.6458 6.144 59.1178 6.144C60.6058 6.144 61.6138 6.488 62.1418 7.176L62.2618 6.456H65.9098L64.5658 14.016C64.5498 14.112 64.5418 14.208 64.5418 14.304ZM57.4378 13.152C57.4058 13.296 57.3898 13.496 57.3898 13.752C57.3898 14.008 57.5098 14.264 57.7498 14.52C57.9898 14.76 58.3898 14.88 58.9498 14.88C59.5258 14.88 60.0218 14.656 60.4378 14.208L61.1578 10.176C60.9818 9.776 60.5658 9.576 59.9098 9.576C58.6778 9.576 57.9578 10.168 57.7498 11.352L57.4378 13.152ZM72.8593 18.336C71.0033 18.336 69.6673 17.92 68.8513 17.088C68.2433 16.48 67.9393 15.664 67.9393 14.64C67.9393 14.304 67.9713 13.944 68.0353 13.56L69.6673 4.272L74.0593 2.448L73.3633 6.456H79.9873L79.3873 9.84H72.7633L72.2833 12.552C72.2193 12.856 72.1873 13.128 72.1873 13.368C72.1873 14.376 72.6673 14.88 73.6273 14.88C74.1393 14.88 74.5633 14.664 74.8993 14.232C75.2513 13.8 75.4913 13.224 75.6193 12.504H79.6033C78.9313 16.392 76.6833 18.336 72.8593 18.336ZM88.0712 6.12C89.7992 6.12 91.1032 6.496 91.9832 7.248C92.6712 7.84 93.0152 8.664 93.0152 9.72C93.0152 10.072 92.9752 10.456 92.8952 10.872L92.3912 13.68C92.0872 15.376 91.3752 16.576 90.2552 17.28C89.1512 17.984 87.6712 18.336 85.8152 18.336C83.9592 18.336 82.5992 17.984 81.7352 17.28C81.0952 16.752 80.7752 15.96 80.7752 14.904C80.7752 14.536 80.8152 14.128 80.8952 13.68L81.3992 10.872C81.9592 7.704 84.1832 6.12 88.0712 6.12ZM88.7192 11.352C88.7512 11.192 88.7672 10.992 88.7672 10.752C88.7672 10.496 88.6632 10.216 88.4552 9.912C88.2472 9.608 87.8792 9.456 87.3512 9.456C86.8392 9.456 86.4072 9.632 86.0552 9.984C85.7032 10.32 85.4792 10.776 85.3832 11.352L85.0712 13.152C85.0392 13.312 85.0232 13.52 85.0232 13.776C85.0232 14.016 85.1272 14.28 85.3352 14.568C85.5432 14.856 85.9032 15 86.4152 15C86.9432 15 87.3832 14.824 87.7352 14.472C88.0872 14.104 88.3112 13.664 88.4072 13.152L88.7192 11.352ZM114.314 14.928C114.682 14.928 115.01 14.848 115.298 14.688L115.178 17.4C114.426 18.024 113.57 18.336 112.61 18.336C110.434 18.336 109.346 17.424 109.346 15.6C109.346 15.28 109.378 14.936 109.442 14.568L109.946 11.616C109.994 11.328 110.018 11.04 110.018 10.752C110.018 9.984 109.594 9.6 108.746 9.6C107.914 9.6 107.258 9.928 106.778 10.584L105.482 18H101.402L102.53 11.616C102.578 11.328 102.602 11.04 102.602 10.752C102.602 9.984 102.17 9.6 101.306 9.6C100.618 9.6 100.026 9.864 99.5301 10.392L98.1861 18H94.1061L96.1461 6.456H99.9381L99.6741 7.896C100.634 6.712 101.85 6.12 103.322 6.12C105.402 6.12 106.586 6.808 106.874 8.184C107.834 6.808 109.114 6.12 110.714 6.12C112.33 6.12 113.378 6.48 113.858 7.2C114.178 7.696 114.338 8.24 114.338 8.832C114.338 9.424 114.298 9.96 114.218 10.44L113.618 14.016C113.602 14.112 113.594 14.2 113.594 14.28C113.594 14.712 113.834 14.928 114.314 14.928ZM123.884 6.12C125.612 6.12 126.916 6.496 127.796 7.248C128.484 7.84 128.828 8.664 128.828 9.72C128.828 10.072 128.788 10.456 128.708 10.872L128.204 13.68C127.9 15.376 127.188 16.576 126.068 17.28C124.964 17.984 123.484 18.336 121.628 18.336C119.772 18.336 118.412 17.984 117.548 17.28C116.908 16.752 116.588 15.96 116.588 14.904C116.588 14.536 116.628 14.128 116.708 13.68L117.212 10.872C117.772 7.704 119.996 6.12 123.884 6.12ZM124.532 11.352C124.564 11.192 124.58 10.992 124.58 10.752C124.58 10.496 124.476 10.216 124.268 9.912C124.06 9.608 123.692 9.456 123.164 9.456C122.652 9.456 122.22 9.632 121.868 9.984C121.516 10.32 121.292 10.776 121.196 11.352L120.884 13.152C120.852 13.312 120.836 13.52 120.836 13.776C120.836 14.016 120.94 14.28 121.148 14.568C121.356 14.856 121.716 15 122.228 15C122.756 15 123.196 14.824 123.548 14.472C123.9 14.104 124.124 13.664 124.22 13.152L124.532 11.352ZM142.255 8.952C142.255 9.48 142.095 9.968 141.775 10.416H137.839C137.967 10.32 138.031 10.16 138.031 9.936C138.031 9.712 137.903 9.536 137.647 9.408C137.391 9.264 137.063 9.192 136.663 9.192C135.463 9.192 134.863 9.56 134.863 10.296C134.863 10.584 135.087 10.792 135.535 10.92C135.983 11.048 136.527 11.152 137.167 11.232C137.807 11.312 138.447 11.432 139.087 11.592C139.727 11.736 140.271 12.032 140.719 12.48C141.167 12.928 141.391 13.528 141.391 14.28C141.391 15.608 140.855 16.616 139.783 17.304C138.727 17.992 137.183 18.336 135.151 18.336C133.119 18.336 131.695 18.008 130.879 17.352C130.239 16.84 129.919 16.136 129.919 15.24C129.919 14.984 129.943 14.72 129.991 14.448L133.999 14.4C133.967 14.624 134.095 14.824 134.383 15C134.687 15.16 135.127 15.24 135.703 15.24C136.279 15.24 136.695 15.184 136.951 15.072C137.207 14.944 137.335 14.712 137.335 14.376C137.335 14.152 137.111 14 136.663 13.92C136.215 13.824 135.663 13.744 135.007 13.68C134.367 13.616 133.719 13.512 133.063 13.368C132.423 13.224 131.879 12.92 131.431 12.456C130.983 11.992 130.759 11.384 130.759 10.632C130.759 9.176 131.319 8.056 132.439 7.272C133.575 6.488 135.207 6.096 137.335 6.096C140.615 6.096 142.255 7.048 142.255 8.952Z" fill="#333333"/>
</svg>
