<svg width="167" height="40" viewBox="0 0 167 40" fill="none" xmlns="http://www.w3.org/2000/svg">
<path d="M91 39.5V1.5H101.5V7H96V33.5H101.5V39.5H91Z" fill="#2E6AC4" stroke="#142D52"/>
<path d="M166.5 39V1L156 1V6.5L161.5 6.5V33H156V39H166.5Z" fill="#2E6AC3" stroke="#142D52"/>
<path d="M1.16 28V13.6H13.16C13.6 13.6 14 13.7067 14.36 13.92C14.7333 14.1333 15.0267 14.4267 15.24 14.8C15.4533 15.16 15.56 15.56 15.56 16V25.6C15.56 26.04 15.4533 26.4467 15.24 26.82C15.0267 27.18 14.7333 27.4667 14.36 27.68C14 27.8933 13.6 28 13.16 28H1.16ZM3.56 26.38H13.16C13.3733 26.38 13.5533 26.3067 13.7 26.16C13.86 26 13.94 25.8133 13.94 25.6V16C13.94 15.7867 13.86 15.6067 13.7 15.46C13.5533 15.3 13.3733 15.22 13.16 15.22H3.56C3.34667 15.22 3.16 15.3 3 15.46C2.85333 15.6067 2.78 15.7867 2.78 16V25.6C2.78 25.8133 2.85333 26 3 26.16C3.16 26.3067 3.34667 26.38 3.56 26.38ZM20.1397 28C19.6997 28 19.293 27.8933 18.9197 27.68C18.5597 27.4533 18.2664 27.16 18.0397 26.8C17.8264 26.4267 17.7197 26.02 17.7197 25.58V21.38H27.8797V18.82C27.8797 18.6067 27.7997 18.4267 27.6397 18.28C27.493 18.12 27.313 18.04 27.0997 18.04H17.7197V16.4H27.0997C27.553 16.4 27.9597 16.5133 28.3197 16.74C28.693 16.9533 28.9864 17.2467 29.1997 17.62C29.4264 17.98 29.5397 18.38 29.5397 18.82V28H20.1397ZM20.1397 26.36H27.8797V23.02H19.3597V25.58C19.3597 25.7933 19.433 25.98 19.5797 26.14C19.7397 26.2867 19.9264 26.36 20.1397 26.36ZM31.2558 28V16.4H46.5758C47.0291 16.4 47.4358 16.5133 47.7958 16.74C48.1691 16.9533 48.4624 17.2467 48.6758 17.62C48.8891 17.98 48.9958 18.38 48.9958 18.82V28H47.3758V18.82C47.3758 18.6067 47.2958 18.4267 47.1358 18.28C46.9758 18.12 46.7891 18.04 46.5758 18.04H41.7558C41.5424 18.04 41.3558 18.12 41.1958 18.28C41.0491 18.4267 40.9758 18.6067 40.9758 18.82V28H39.3158V18.82C39.3158 18.6067 39.2358 18.4267 39.0758 18.28C38.9291 18.12 38.7491 18.04 38.5358 18.04H33.6958C33.4824 18.04 33.2958 18.12 33.1358 18.28C32.9891 18.4267 32.9158 18.6067 32.9158 18.82V28H31.2558ZM53.1866 28C52.7466 28 52.3399 27.8933 51.9666 27.68C51.6066 27.4533 51.3132 27.16 51.0866 26.8C50.8732 26.4267 50.7666 26.02 50.7666 25.58V21.38H60.9266V18.82C60.9266 18.6067 60.8466 18.4267 60.6866 18.28C60.5399 18.12 60.3599 18.04 60.1466 18.04H50.7666V16.4H60.1466C60.5999 16.4 61.0066 16.5133 61.3666 16.74C61.7399 16.9533 62.0332 17.2467 62.2466 17.62C62.4732 17.98 62.5866 18.38 62.5866 18.82V28H53.1866ZM53.1866 26.36H60.9266V23.02H52.4066V25.58C52.4066 25.7933 52.4799 25.98 52.6266 26.14C52.7866 26.2867 52.9732 26.36 53.1866 26.36ZM67.0933 28C66.6399 28 66.2266 27.8933 65.8533 27.68C65.4933 27.4533 65.2066 27.16 64.9933 26.8C64.7799 26.4267 64.6733 26.02 64.6733 25.58V12.6H66.3133V16.4H71.3333V18.04H66.3133V25.58C66.3133 25.7933 66.3866 25.98 66.5333 26.14C66.6933 26.2867 66.8799 26.36 67.0933 26.36H71.3333V28H67.0933ZM75.2564 28C74.8164 28 74.4097 27.8933 74.0364 27.68C73.6764 27.4533 73.3831 27.16 73.1564 26.8C72.9431 26.4267 72.8364 26.02 72.8364 25.58V18.82C72.8364 18.38 72.9431 17.98 73.1564 17.62C73.3831 17.2467 73.6764 16.9533 74.0364 16.74C74.4097 16.5133 74.8164 16.4 75.2564 16.4H82.2164C82.6697 16.4 83.0764 16.5133 83.4364 16.74C83.8097 16.9533 84.1031 17.2467 84.3164 17.62C84.5431 17.98 84.6564 18.38 84.6564 18.82V25.58C84.6564 26.02 84.5431 26.4267 84.3164 26.8C84.1031 27.16 83.8097 27.4533 83.4364 27.68C83.0764 27.8933 82.6697 28 82.2164 28H75.2564ZM75.2564 26.36H82.2164C82.4297 26.36 82.6097 26.2867 82.7564 26.14C82.9164 25.98 82.9964 25.7933 82.9964 25.58V18.82C82.9964 18.6067 82.9164 18.4267 82.7564 18.28C82.6097 18.12 82.4297 18.04 82.2164 18.04H75.2564C75.0431 18.04 74.8564 18.12 74.6964 18.28C74.5497 18.4267 74.4764 18.6067 74.4764 18.82V25.58C74.4764 25.7933 74.5497 25.98 74.6964 26.14C74.8564 26.2867 75.0431 26.36 75.2564 26.36Z" fill="black"/>
<path d="M104.12 28V13.6H107.18L112.22 19.62L117.24 13.6H120.32V28H117.42V17.9L112.22 24.12L107 17.92V28H104.12ZM125.515 28C124.981 28 124.495 27.8733 124.055 27.62C123.628 27.3533 123.281 27.0067 123.015 26.58C122.761 26.14 122.635 25.6533 122.635 25.12V16.48C122.635 15.9467 122.761 15.4667 123.015 15.04C123.281 14.6 123.628 14.2533 124.055 14C124.495 13.7333 124.981 13.6 125.515 13.6H134.155C134.675 13.6 135.148 13.7333 135.575 14C136.015 14.2533 136.368 14.6 136.635 15.04C136.901 15.4667 137.035 15.9467 137.035 16.48V25.12C137.035 25.6533 136.901 26.14 136.635 26.58C136.368 27.0067 136.015 27.3533 135.575 27.62C135.148 27.8733 134.675 28 134.155 28H125.515ZM125.635 25.1H133.995C134.035 25.1 134.061 25.0933 134.075 25.08C134.101 25.0533 134.115 25.02 134.115 24.98V16.62C134.115 16.58 134.101 16.5533 134.075 16.54C134.061 16.5133 134.035 16.5 133.995 16.5H125.635C125.595 16.5 125.561 16.5133 125.535 16.54C125.521 16.5533 125.515 16.58 125.515 16.62V24.98C125.515 25.02 125.521 25.0533 125.535 25.08C125.561 25.0933 125.595 25.1 125.635 25.1ZM142.057 28C141.537 28 141.057 27.8733 140.617 27.62C140.177 27.3533 139.831 27.0067 139.577 26.58C139.324 26.14 139.197 25.6533 139.197 25.12V23.9H142.077V24.98C142.077 25.02 142.084 25.0533 142.097 25.08C142.124 25.0933 142.151 25.1 142.177 25.1H150.557C150.584 25.1 150.611 25.0933 150.637 25.08C150.664 25.0533 150.677 25.02 150.677 24.98V22.36C150.677 22.3333 150.664 22.3133 150.637 22.3C150.611 22.2733 150.584 22.26 150.557 22.26H142.057C141.537 22.26 141.057 22.1333 140.617 21.88C140.177 21.6133 139.831 21.26 139.577 20.82C139.324 20.38 139.197 19.9 139.197 19.38V16.48C139.197 15.9467 139.324 15.4667 139.577 15.04C139.831 14.6 140.177 14.2533 140.617 14C141.057 13.7333 141.537 13.6 142.057 13.6H150.717C151.237 13.6 151.711 13.7333 152.137 14C152.577 14.2533 152.931 14.6 153.197 15.04C153.464 15.4667 153.597 15.9467 153.597 16.48V17.7H150.677V16.62C150.677 16.58 150.664 16.5533 150.637 16.54C150.611 16.5133 150.584 16.5 150.557 16.5H142.177C142.151 16.5 142.124 16.5133 142.097 16.54C142.084 16.5533 142.077 16.58 142.077 16.62V19.24C142.077 19.2667 142.084 19.2933 142.097 19.32C142.124 19.3333 142.151 19.34 142.177 19.34H150.717C151.237 19.34 151.711 19.4733 152.137 19.74C152.577 19.9933 152.931 20.34 153.197 20.78C153.464 21.22 153.597 21.7 153.597 22.22V25.12C153.597 25.6533 153.464 26.14 153.197 26.58C152.931 27.0067 152.577 27.3533 152.137 27.62C151.711 27.8733 151.237 28 150.717 28H142.057Z" fill="black"/>
</svg>
