<svg width="80" height="49" viewBox="0 0 80 49" fill="none" xmlns="http://www.w3.org/2000/svg">
<path d="M39.4647 48.908C39.2027 48.908 38.9407 48.8332 38.7037 48.7084L36.3081 47.286C35.9462 47.0864 36.1209 47.0115 36.2457 46.9741C36.7198 46.8119 36.8196 46.7745 37.3312 46.475C37.3811 46.4501 37.456 46.4625 37.5059 46.4875L39.3525 47.5855C39.4148 47.6229 39.5147 47.6229 39.577 47.5855L46.7887 43.4181C46.8511 43.3807 46.901 43.3059 46.901 43.2185V34.8964C46.901 34.809 46.8636 34.7342 46.7887 34.6967L39.577 30.5419C39.5147 30.5045 39.4273 30.5045 39.3525 30.5419L32.1408 34.6967C32.0659 34.7342 32.0285 34.8215 32.0285 34.8964V43.2185C32.0285 43.2934 32.0784 43.3682 32.1408 43.4057L34.1121 44.5411C35.1851 45.0776 35.8464 44.4413 35.8464 43.8174V35.5951C35.8464 35.4828 35.9338 35.383 36.0585 35.383H36.9693C37.0816 35.383 37.1815 35.4703 37.1815 35.5951V43.8174C37.1815 45.2523 36.4079 46.0633 35.0479 46.0633C34.6362 46.0633 34.2993 46.0633 33.3885 45.6141L31.4919 44.5286C31.0303 44.2541 30.7309 43.755 30.7309 43.2185V34.8964C30.7309 34.3598 31.0178 33.8483 31.4919 33.5863L38.7037 29.419C39.1653 29.1569 39.7642 29.1569 40.2134 29.419L47.4251 33.5863C47.8867 33.8608 48.1862 34.3598 48.1862 34.8964V43.2185C48.1862 43.755 47.8992 44.2666 47.4251 44.5286L40.2134 48.6959C40.0013 48.8332 39.7392 48.908 39.4647 48.908ZM45.2915 40.6982C45.2915 39.1385 44.2434 38.7268 42.0225 38.4273C39.7767 38.1279 39.5521 37.9782 39.5521 37.4541C39.5521 37.0174 39.7392 36.4435 41.3987 36.4435C42.8834 36.4435 43.4324 36.7679 43.657 37.7661C43.682 37.8659 43.7568 37.9283 43.8567 37.9283H44.7924C44.8548 37.9283 44.9047 37.9033 44.9422 37.8659C44.9796 37.816 45.0045 37.7661 44.9921 37.7037C44.8423 35.9819 43.7069 35.1833 41.3987 35.1833C39.34 35.1833 38.1172 36.0567 38.1172 37.5041C38.1172 39.0886 39.34 39.5128 41.3113 39.7125C43.6695 39.9495 43.8567 40.2864 43.8567 40.7481C43.8567 41.5591 43.2079 41.896 41.6857 41.896C39.7767 41.896 39.3525 41.4218 39.2152 40.4736C39.2027 40.3738 39.1154 40.2989 39.0031 40.2989H38.0673C37.955 40.2989 37.8552 40.3862 37.8552 40.511C37.8552 41.7213 38.5165 43.1686 41.6732 43.1686C43.9814 43.1686 45.2915 42.2703 45.2915 40.6982ZM52.0915 34.4472C52.0915 35.2083 51.4676 35.8321 50.7065 35.8321C49.9454 35.8321 49.3216 35.2083 49.3216 34.4472C49.3216 33.6611 49.9704 33.0622 50.7065 33.0622C51.4551 33.0498 52.0915 33.6611 52.0915 34.4472ZM51.8669 34.4472C51.8669 33.7984 51.3429 33.2868 50.694 33.2868C50.0577 33.2868 49.5337 33.7984 49.5337 34.4472C49.5337 35.096 50.0577 35.62 50.694 35.62C51.3429 35.6075 51.8669 35.0835 51.8669 34.4472ZM51.3054 35.2208H50.981C50.9685 35.1459 50.9186 34.7466 50.9186 34.7342C50.8937 34.6468 50.8687 34.5969 50.7564 34.5969H50.4819V35.2208H50.1825V33.6611H50.719C50.9062 33.6611 51.268 33.6611 51.268 34.0729C51.268 34.3598 51.0808 34.4222 50.9685 34.4597C51.1807 34.4721 51.1931 34.6094 51.2306 34.809C51.243 34.9338 51.268 35.1459 51.3054 35.2208ZM50.9561 34.1228C50.9561 33.9107 50.8063 33.9107 50.7315 33.9107H50.4819V34.3474H50.719C50.9186 34.3474 50.9561 34.2101 50.9561 34.1228ZM17.1309 16.3431C17.1309 16.0062 16.9562 15.7067 16.6693 15.5445L9.02087 11.1401C8.8961 11.0653 8.74638 11.0279 8.59665 11.0154H8.52179C8.37207 11.0154 8.23482 11.0653 8.09757 11.1401L0.461649 15.5445C0.174678 15.7067 0 16.0187 0 16.3431L0.012477 28.1962C0.012477 28.3584 0.099816 28.5081 0.237063 28.5955C0.37431 28.6828 0.548988 28.6828 0.698712 28.5955L5.24034 25.9878C5.52731 25.8131 5.70199 25.5137 5.70199 25.1892V19.6495C5.70199 19.3251 5.87667 19.0131 6.16364 18.8509L8.09757 17.7405C8.2473 17.6531 8.39702 17.6157 8.55922 17.6157C8.72142 17.6157 8.88362 17.6531 9.02087 17.7405L10.9548 18.8509C11.2418 19.0131 11.4165 19.3251 11.4165 19.6495V25.1892C11.4165 25.5137 11.5911 25.8256 11.8781 25.9878L16.4197 28.5955C16.557 28.6828 16.7441 28.6828 16.8814 28.5955C17.0186 28.5206 17.106 28.3584 17.106 28.1962L17.1309 16.3431ZM58.9538 3.40441V25.4138C58.9538 25.7382 58.7791 26.0502 58.4922 26.2124L50.8438 30.6292C50.5568 30.7914 50.2075 30.7914 49.9205 30.6292L42.2721 26.2124C41.9851 26.0502 41.8104 25.7382 41.8104 25.4138V16.5801C41.8104 16.2557 41.9851 15.9438 42.2721 15.7816L49.9205 11.3647C50.2075 11.2025 50.5568 11.2025 50.8438 11.3647L52.7528 12.4627C52.9649 12.5875 53.2394 12.4253 53.2394 12.1882V0.459837C53.2394 0.110481 53.6137 -0.114105 53.9256 0.0605729L58.4797 2.60588C58.7667 2.75561 58.9538 3.06753 58.9538 3.40441ZM53.2144 19.4873C53.2144 19.3999 53.1645 19.3251 53.1021 19.2876L50.4819 17.7654C50.4071 17.728 50.3197 17.728 50.2449 17.7654L47.6247 19.2876C47.5499 19.3251 47.5124 19.3999 47.5124 19.4873V22.5192C47.5124 22.6065 47.5623 22.6814 47.6247 22.7188L50.2449 24.2285C50.3197 24.266 50.4071 24.266 50.4695 24.2285L53.0896 22.7188C53.1645 22.6814 53.2019 22.6065 53.2019 22.5192V19.4873H53.2144ZM79.3912 19.3999C79.6781 19.2377 79.8528 18.9258 79.8528 18.6014V16.4678C79.8528 16.1434 79.6781 15.8315 79.3912 15.6693L71.7927 11.2524C71.5057 11.0902 71.1563 11.0902 70.8694 11.2524L63.221 15.6693C62.934 15.8315 62.7593 16.1434 62.7593 16.4678V25.3015C62.7593 25.6384 62.934 25.9379 63.221 26.1001L70.8195 30.4296C71.0939 30.5918 71.4433 30.5918 71.7303 30.4296L76.3218 27.8718C76.6337 27.6971 76.6337 27.248 76.3218 27.0733L68.6235 22.6564C68.4738 22.5691 68.3864 22.4194 68.3864 22.2572V19.4873C68.3864 19.3251 68.4738 19.1753 68.6235 19.088L71.0191 17.7031C71.1563 17.6157 71.3435 17.6157 71.4807 17.7031L73.8763 19.088C74.0136 19.1753 74.1134 19.3251 74.1134 19.4873V21.6583C74.1134 22.0076 74.5002 22.2322 74.8121 22.0575L79.3912 19.3999ZM69.7464 19.8366C69.6965 19.874 69.6591 19.924 69.6591 19.9863V21.6832C69.6591 21.7456 69.6965 21.808 69.7464 21.8329L71.2187 22.6814C71.2686 22.7188 71.3435 22.7188 71.3934 22.6814L72.8657 21.8329C72.9156 21.7955 72.953 21.7456 72.953 21.6832V19.9863C72.953 19.924 72.9156 19.8616 72.8657 19.8366L71.3934 18.9882C71.3435 18.9508 71.2686 18.9508 71.2187 18.9882L69.7464 19.8366ZM38.0299 25.2641V16.4803C38.0299 16.1559 37.8303 15.844 37.5433 15.6818L29.9198 11.2899C29.6578 11.1401 29.296 11.1152 28.9965 11.2899L21.3731 15.6818C21.0861 15.844 20.8865 16.1434 20.8865 16.4803V25.2641C20.8865 25.6135 21.1236 25.9129 21.3856 26.0626L29.0215 30.4545C29.321 30.6292 29.6703 30.6167 29.9448 30.4545L37.5558 26.0626C37.7804 25.9379 37.9426 25.7258 38.0049 25.4762C38.0174 25.4138 38.0299 25.339 38.0299 25.2641ZM28.7595 9.68034L28.6597 9.74273H28.7969L28.7595 9.68034ZM38.267 25.9254L38.217 25.8381V25.9503L38.267 25.9254Z" fill="#5E7DE9"/>
</svg>
