<svg width="69" height="60" viewBox="0 0 69 60" fill="none" xmlns="http://www.w3.org/2000/svg">
<path d="M56.0059 19.4437C55.2828 19.2027 54.5596 18.975 53.8364 18.7607C53.9569 18.2652 54.0641 17.7697 54.1712 17.2742C55.8185 9.29247 54.7337 2.87764 51.0776 0.761677C47.5555 -1.26054 41.8103 0.84203 35.9981 5.90426C35.4222 6.39977 34.8597 6.92206 34.3241 7.44436C33.9625 7.09616 33.5875 6.74796 33.2125 6.41316C27.1191 1.00274 21.0123 -1.27393 17.3562 0.855422C13.8475 2.89103 12.8029 8.93088 14.276 16.4841C14.4233 17.234 14.584 17.9706 14.7715 18.7205C13.9144 18.9616 13.0707 19.2294 12.2806 19.5107C5.12919 21.9882 0 25.8987 0 29.9432C0 34.1215 5.46399 38.3132 12.8966 40.8577C13.4993 41.0586 14.1019 41.2595 14.718 41.4336C14.5171 42.2371 14.343 43.0273 14.1823 43.8442C12.7761 51.2768 13.8743 57.1694 17.383 59.1916C20.9989 61.2808 27.0789 59.138 32.9982 53.9553C33.467 53.5401 33.9357 53.1116 34.4044 52.6562C34.9937 53.2321 35.6097 53.7812 36.2257 54.3169C41.9576 59.2452 47.6225 61.2406 51.1178 59.2184C54.7337 57.1292 55.9122 50.7947 54.3855 43.0808C54.265 42.4916 54.131 41.8889 53.9837 41.2729C54.4123 41.1524 54.8274 41.0185 55.2426 40.8845C62.9699 38.3266 68.5678 34.1885 68.5678 29.9432C68.5678 25.8853 63.2913 21.948 56.0059 19.4437ZM37.8864 8.07379C42.8682 3.73473 47.5153 2.03393 49.6313 3.25262C51.8946 4.55165 52.765 9.80137 51.3455 16.6983C51.2517 17.1537 51.158 17.5956 51.0375 18.0375C48.0644 17.3679 45.0512 16.8858 42.0245 16.618C40.2836 14.127 38.3819 11.7432 36.3195 9.50675C36.8418 9.01124 37.3507 8.54251 37.8864 8.07379ZM22.3917 36.8937C23.0747 38.0588 23.7711 39.2239 24.5076 40.3622C22.4184 40.1346 20.3427 39.7998 18.2937 39.3578C18.8829 37.4294 19.6195 35.4339 20.4766 33.3983C21.0926 34.5768 21.7221 35.742 22.3917 36.8937ZM18.3338 20.7829C20.2623 20.3544 22.3113 20.0062 24.4407 19.7383C23.7309 20.8499 23.0345 21.9882 22.3783 23.1399C21.7221 24.2783 21.0792 25.4434 20.4766 26.6219C19.6329 24.6265 18.9231 22.6712 18.3338 20.7829ZM22.0033 30.0101C22.8872 28.162 23.8514 26.3541 24.8692 24.5729C25.887 22.7917 26.9852 21.0642 28.1369 19.3634C30.1457 19.216 32.1947 19.1357 34.2839 19.1357C36.3731 19.1357 38.4354 19.216 40.4309 19.3634C41.5692 21.0508 42.654 22.7784 43.6852 24.5461C44.7164 26.3139 45.6806 28.1218 46.5913 29.9565C45.694 31.8047 44.7298 33.626 43.6986 35.4205C42.6808 37.2017 41.596 38.9293 40.4577 40.6435C38.4622 40.7908 36.3865 40.8577 34.2839 40.8577C32.1813 40.8577 30.1457 40.7908 28.1771 40.6703C27.012 38.9695 25.9138 37.2285 24.8826 35.4473C23.8514 33.6662 22.9006 31.8582 22.0033 30.0101ZM46.1895 36.8669C46.8725 35.6884 47.5153 34.4965 48.1448 33.2912C49.0019 35.233 49.7518 37.2017 50.408 39.2239C48.3322 39.6926 46.2297 40.0542 44.1137 40.2953C44.8369 39.1703 45.5199 38.0186 46.1895 36.8669ZM48.118 26.6219C47.4885 25.4434 46.8457 24.2649 46.1761 23.1132C45.5199 21.9748 44.8369 20.8499 44.1271 19.7383C46.2832 20.0062 48.3456 20.3678 50.2741 20.8097C49.6581 22.7917 48.9349 24.7202 48.118 26.6219ZM34.3107 11.5557C35.7168 13.0824 37.0427 14.6895 38.2747 16.3501C35.6231 16.2296 32.9581 16.2296 30.3064 16.3501C31.6189 14.6225 32.9715 13.0155 34.3107 11.5557ZM18.7758 3.34636C21.0257 2.03393 26.0209 3.90883 31.284 8.5693C31.6189 8.86392 31.9537 9.18533 32.3018 9.50675C30.2261 11.7432 28.311 14.127 26.5566 16.618C23.53 16.8858 20.5302 17.3545 17.5571 18.0108C17.383 17.3278 17.2357 16.6314 17.0884 15.935C15.8295 9.45318 16.6598 4.56505 18.7758 3.34636ZM15.4947 38.648C14.9322 38.4873 14.3832 38.3132 13.8341 38.1258C10.9816 37.2285 7.74066 35.8089 5.39703 33.9474C4.04443 33.01 3.13376 31.5636 2.87931 29.9432C2.87931 27.4924 7.11123 24.3586 13.218 22.2293C13.9814 21.9614 14.7581 21.7204 15.5349 21.4927C16.4456 24.3988 17.5437 27.2513 18.816 30.0101C17.5303 32.8091 16.4188 35.7018 15.4947 38.648ZM31.1099 51.7723C28.9002 53.7946 26.3423 55.4016 23.5568 56.4998C22.0703 57.2096 20.3561 57.2765 18.8294 56.6739C16.7 55.4418 15.8161 50.7144 17.0214 44.3531C17.1687 43.6031 17.3294 42.8532 17.5169 42.1166C20.5168 42.7594 23.5434 43.2014 26.6102 43.429C28.378 45.9334 30.3198 48.3306 32.3956 50.5804C31.967 50.9956 31.5385 51.3974 31.1099 51.7723ZM34.391 48.5181C33.025 47.0449 31.659 45.4111 30.3332 43.6567C31.6188 43.7103 32.9447 43.7371 34.2839 43.7371C35.6633 43.7371 37.0159 43.7103 38.3551 43.6433C37.123 45.3441 35.7972 46.9646 34.391 48.5181ZM51.8946 52.5357C51.774 54.1695 50.9705 55.6962 49.6848 56.7274C47.5555 57.9595 43.0156 56.3525 38.114 52.1473C37.5516 51.6652 36.9891 51.1429 36.4132 50.6072C38.4622 48.344 40.3505 45.9468 42.0647 43.429C45.1315 43.1746 48.1849 42.7059 51.1982 42.0229C51.3321 42.5719 51.4526 43.121 51.5597 43.6567C52.216 46.5494 52.3231 49.5626 51.8946 52.5357ZM54.3319 38.1391C53.9569 38.2597 53.582 38.3802 53.1936 38.4873C52.2561 35.5679 51.1044 32.7153 49.7786 29.9432C51.0642 27.2112 52.149 24.3988 53.0597 21.5195C53.7561 21.7204 54.4257 21.9347 55.0685 22.1489C61.3092 24.2917 65.6885 27.479 65.6885 29.9164C65.6885 32.5412 61.0146 35.9294 54.3319 38.1391ZM34.2839 36.1303C37.6721 36.1303 40.4175 33.3849 40.4175 29.9967C40.4175 26.6085 37.6721 23.8631 34.2839 23.8631C30.8957 23.8631 28.1503 26.6085 28.1503 29.9967C28.1503 33.3849 30.8957 36.1303 34.2839 36.1303Z" fill="#5E7DE9"/>
</svg>
